<svg xmlns="http://www.w3.org/2000/svg" viewBox="445.25 228.911 8612 8680">
	<path d="M4450 8900 c-178 -12 -330 -33 -323 -43 4 -6 1 -7 -6 -3 -16 10 -182 -14 -175 -25 3 -5 -1 -6 -9 -3 -48 18 -699 -165 -665 -188 8 -5 4 -6 -13 -3 -17 4 -32 1 -41 -9 -9 -8 -18 -13 -20 -10 -9 8 -99 -32 -91 -41 4 -4 3 -5 -3 -2 -15 9 -76 -12 -69 -23 3 -5 0 -12 -6 -16 -8 -4 -9 -3 -5 4 11 19 -3 14 -104 -33 -52 -24 -96 -51 -98 -60 -2 -8 -8 -15 -13 -15 -6 0 -7 5 -4 10 4 6 -4 5 -19 -1 -14 -7 -23 -16 -20 -20 3 -5 -1 -7 -8 -4 -19 7 -160 -74 -152 -87 4 -7 3 -8 -4 -4 -16 10 -54 -12 -46 -26 4 -7 3 -8 -5 -4 -14 9 -98 -42 -260 -157 -175 -126 -251 -188 -244 -200 3 -6 1 -7 -5 -4 -15 10 -180 -139 -375 -336 -117 -119 -164 -173 -155 -179 10 -6 8 -8 -4 -8 -18 0 -165 -166 -161 -181 2 -5 -1 -9 -7 -9 -16 0 -181 -240 -174 -253 4 -7 3 -9 -1 -4 -16 14 -131 -175 -119 -195 4 -7 3 -8 -4 -4 -6 4 -18 -6 -27 -23 -18 -36 -19 -45 -3 -35 7 4 8 3 4 -5 -4 -6 -11 -9 -15 -6 -10 6 -92 -143 -94 -172 -1 -11 -6 -19 -11 -15 -5 3 -6 -2 -3 -12 4 -9 3 -15 -2 -12 -12 8 -94 -171 -85 -185 4 -7 3 -9 -3 -6 -20 12 -162 -383 -223 -617 -24 -93 -24 -99 -7 -91 6 4 5 0 -4 -7 -27 -22 -81 -312 -111 -588 -17 -163 -17 -715 0 -870 27 -242 63 -451 107 -625 43 -173 111 -395 124 -405 3 -3 6 -9 6 -15 0 -5 6 -27 14 -49 10 -29 16 -35 23 -25 7 10 8 8 3 -7 -6 -24 17 -88 29 -77 4 4 4 1 1 -8 -7 -18 80 -210 100 -222 8 -4 12 -14 9 -22 -4 -8 -1 -15 6 -15 6 0 9 -4 5 -10 -12 -20 224 -430 248 -430 6 0 7 -3 4 -6 -10 -11 13 -45 25 -38 7 4 8 3 4 -4 -8 -13 63 -124 75 -117 4 3 11 0 15 -6 4 -8 3 -9 -4 -5 -7 4 -12 4 -12 1 0 -12 165 -227 212 -277 24 -27 42 -48 40 -48 -8 0 61 -75 180 -197 66 -68 125 -120 131 -116 5 3 7 1 4 -4 -9 -15 149 -157 164 -147 7 4 9 3 6 -4 -9 -13 92 -98 111 -94 8 2 11 -1 8 -6 -7 -12 71 -75 83 -67 5 3 13 0 17 -6 5 -8 2 -10 -7 -5 -33 18 44 -40 151 -113 132 -89 250 -160 231 -138 -9 12 -9 17 0 23 8 4 9 3 5 -4 -4 -7 -2 -12 3 -12 6 0 11 -6 11 -13 0 -26 388 -221 417 -210 10 4 14 2 9 -5 -8 -13 29 -26 45 -16 8 5 9 3 4 -6 -6 -10 -4 -12 9 -7 9 4 14 3 11 -2 -7 -12 31 -24 46 -15 7 4 9 3 6 -3 -4 -6 12 -18 35 -27 33 -12 44 -13 50 -3 6 9 8 8 8 -3 0 -18 153 -76 171 -64 7 4 9 3 6 -3 -6 -9 93 -41 265 -85 67 -18 81 -19 89 -7 7 12 9 11 9 -2 0 -25 248 -73 545 -104 146 -15 606 -22 727 -10 231 21 288 29 278 35 -15 9 11 20 43 19 20 -1 20 -2 -3 -9 l-25 -8 27 -1 c15 -1 30 4 33 10 4 6 14 8 22 5 18 -7 145 13 139 23 -2 3 15 6 37 7 67 1 202 35 186 46 -10 7 -5 8 16 5 37 -7 87 2 79 14 -3 5 1 7 8 4 17 -7 192 42 196 54 2 6 9 8 15 5 17 -6 118 31 109 41 -4 4 -2 5 5 1 14 -8 223 73 223 86 0 5 5 6 10 3 11 -7 230 93 230 105 0 4 6 7 13 7 19 0 147 64 147 74 0 5 6 8 13 7 6 -2 11 3 9 10 -1 8 2 11 8 7 13 -8 110 47 103 59 -3 5 -1 6 5 2 15 -9 100 44 106 67 3 12 12 17 24 15 23 -4 164 90 156 104 -3 5 -2 8 3 7 17 -3 29 2 53 22 14 11 19 18 13 14 -7 -3 -13 -1 -13 4 0 6 9 11 20 11 30 0 150 97 143 116 -3 7 0 14 7 14 6 0 8 -4 5 -10 -11 -17 11 -11 28 8 10 10 14 22 10 27 -5 4 -3 5 3 2 13 -8 160 119 156 134 -1 6 1 8 6 5 12 -7 84 68 75 79 -5 4 -3 5 3 2 12 -7 57 35 49 46 -3 4 -2 5 2 2 10 -8 33 16 26 28 -3 5 -2 7 4 4 18 -12 228 226 217 245 -4 6 -3 8 4 4 13 -8 54 43 45 57 -3 6 -1 7 6 3 6 -4 14 0 17 9 4 8 19 29 35 46 17 19 26 36 22 46 -4 10 -2 14 4 10 6 -4 23 9 37 27 28 38 33 51 14 40 -8 -4 -10 -3 -5 2 5 5 14 9 20 9 7 0 11 8 11 18 -1 9 2 15 6 12 12 -7 75 96 72 117 -2 10 3 18 11 18 16 0 34 18 39 39 2 8 11 22 20 32 10 10 15 26 12 34 -4 10 -2 15 6 13 17 -4 79 109 73 135 -4 17 -2 19 5 8 8 -11 19 2 46 57 20 40 33 72 29 72 -5 0 -3 4 3 8 11 7 44 65 44 77 0 3 -5 3 -12 -1 -7 -4 -8 -3 -4 5 4 6 11 9 15 6 5 -2 23 27 40 67 26 57 30 73 19 80 -10 8 -9 9 3 5 32 -10 170 380 249 705 22 92 42 186 44 210 2 24 7 51 11 61 4 9 5 28 3 42 -3 13 -2 22 2 20 7 -5 10 18 36 265 19 188 13 764 -10 950 -32 259 -91 555 -107 544 -5 -3 -6 1 -3 9 11 30 -100 383 -181 572 -75 174 -186 396 -196 390 -5 -4 -6 2 -2 11 5 13 3 15 -7 9 -8 -5 -11 -4 -6 3 7 12 -50 122 -63 122 -4 0 -8 6 -8 13 0 22 -45 87 -56 80 -6 -3 -7 -1 -3 6 4 6 -2 27 -14 46 -23 38 -33 45 -23 18 3 -10 2 -15 -2 -10 -5 4 -9 15 -10 25 -2 28 -45 93 -57 86 -7 -4 -8 -2 -4 4 9 15 -34 73 -47 65 -6 -3 -7 -1 -3 5 12 20 -267 368 -286 356 -6 -4 -8 -3 -5 3 9 14 -22 55 -35 47 -6 -4 -8 -3 -5 3 8 13 -77 96 -88 86 -4 -5 -5 -3 -2 3 8 14 -17 37 -28 26 -5 -4 -5 -2 -2 4 7 12 -141 160 -281 279 -92 79 -123 100 -107 75 5 -9 4 -11 -4 -6 -6 4 -9 11 -6 15 7 12 -74 73 -87 65 -6 -4 -8 -3 -4 4 12 20 -317 240 -527 352 -53 28 -97 49 -97 46 0 -4 -10 2 -22 14 -12 11 -25 20 -29 20 -4 0 -56 23 -116 51 -59 28 -118 52 -130 53 -12 0 -19 3 -17 5 12 12 -309 124 -488 171 -72 18 -129 28 -145 24 -19 -4 -24 -3 -15 4 14 10 -177 50 -267 57 -28 1 -53 5 -58 8 -15 9 -312 39 -357 36 -24 -2 -42 -1 -39 4 5 9 -402 7 -547 -3z m515 -1112 l30 -3 21 -215 c45 -451 58 -570 65 -570 4 0 5 -10 1 -22 -4 -17 -2 -20 11 -15 9 3 17 1 19 -5 2 -5 31 -11 65 -12 33 0 59 -3 57 -6 -3 -2 42 -14 100 -26 58 -13 116 -26 128 -30 19 -6 21 -4 13 8 -6 7 -3 7 5 -3 20 -20 114 -52 154 -52 17 1 25 -1 18 -4 -15 -6 133 -73 151 -69 7 2 8 1 4 -2 -5 -2 30 -26 78 -53 47 -28 90 -47 96 -44 5 4 8 1 7 -7 -2 -8 6 -12 22 -10 17 1 21 -1 11 -7 -10 -7 -8 -12 10 -24 12 -9 26 -14 31 -11 5 3 7 1 6 -4 -4 -11 107 -113 116 -107 3 3 4 2 2 -1 -2 -3 15 -27 39 -52 24 -26 58 -63 75 -82 58 -65 190 -272 244 -384 53 -111 106 -245 106 -271 0 -8 -16 -19 -35 -26 -25 -9 -31 -16 -22 -22 8 -6 6 -7 -6 -3 -21 7 -199 -62 -192 -74 3 -5 -3 -8 -12 -8 -24 2 -113 -32 -113 -43 0 -5 -3 -8 -7 -7 -19 4 -62 -15 -56 -25 3 -6 1 -7 -5 -3 -6 4 -50 -10 -97 -30 -56 -25 -81 -40 -73 -46 8 -5 4 -7 -12 -6 -35 2 -191 -62 -183 -75 4 -6 0 -8 -9 -5 -8 4 -33 -2 -56 -12 l-40 -18 -13 51 c-16 69 -69 217 -78 217 -4 0 -7 8 -8 18 -5 69 -230 357 -263 337 -6 -4 -9 -1 -8 6 4 17 -103 91 -121 84 -9 -3 -12 -3 -8 1 13 13 -46 44 -73 38 -18 -4 -21 -3 -11 4 10 7 -2 15 -45 31 -102 39 -215 61 -339 68 -121 6 -287 -3 -267 -15 5 -4 -11 -7 -36 -7 -63 -1 -124 -14 -117 -25 3 -6 -1 -7 -10 -4 -22 9 -148 -37 -133 -49 9 -5 6 -6 -7 -3 -45 12 -347 -186 -329 -216 4 -6 2 -8 -4 -5 -11 7 -67 -55 -119 -133 -88 -130 -157 -310 -187 -483 -63 -359 -36 -811 75 -1249 67 -269 179 -505 317 -670 22 -26 43 -44 47 -40 5 4 5 2 2 -5 -8 -13 68 -85 158 -148 85 -60 224 -129 262 -129 18 0 28 -3 22 -7 -7 -4 2 -10 19 -14 18 -3 37 -3 43 1 7 4 9 3 5 -4 -7 -11 66 -30 149 -38 36 -3 44 -2 30 5 -17 8 -16 10 12 10 17 1 35 -4 39 -11 5 -8 2 -9 -9 -5 -10 3 -17 2 -17 -3 0 -6 51 -10 125 -10 69 0 125 4 125 9 0 4 -11 6 -25 3 -15 -2 -25 0 -25 7 0 7 14 11 34 9 19 -1 32 -6 30 -10 -3 -4 12 -7 33 -7 l38 1 -30 9 c-25 7 -22 8 15 4 49 -5 200 31 200 47 0 5 4 7 9 4 13 -8 42 4 35 15 -3 5 1 6 9 3 19 -7 120 43 112 56 -3 5 3 8 12 7 25 -1 74 33 66 46 -3 6 -1 7 5 3 14 -8 97 67 154 138 28 35 37 55 33 70 -5 15 -4 17 3 7 8 -11 15 -5 31 28 12 23 19 47 15 53 -4 6 -3 8 3 5 28 -17 97 217 123 413 18 143 21 151 39 146 15 -5 126 -24 546 -96 94 -16 221 -38 283 -49 63 -10 115 -21 118 -23 8 -8 -27 -244 -56 -373 -37 -167 -79 -295 -140 -422 -26 -56 -47 -103 -47 -105 1 -2 0 -2 -2 -1 -2 1 -34 -41 -71 -95 -37 -53 -77 -105 -88 -116 -12 -10 -19 -24 -15 -30 3 -6 3 -8 -2 -4 -5 5 -15 -1 -23 -13 -7 -11 -55 -55 -105 -96 -51 -42 -91 -80 -90 -83 1 -4 -3 -7 -10 -7 -7 0 -52 -26 -102 -57 -96 -62 -211 -119 -313 -157 l-64 -24 6 -50 c3 -27 6 -67 6 -88 0 -21 4 -36 9 -32 5 3 13 0 17 -6 4 -8 3 -9 -4 -5 -18 11 -15 -38 22 -349 18 -154 32 -281 32 -282 -2 -3 -185 -32 -276 -43 -52 -7 -102 -15 -110 -18 -8 -3 -19 -4 -24 -3 -8 2 -144 -15 -202 -25 l-31 -6 -12 114 c-7 62 -15 120 -18 128 -3 8 -5 31 -4 52 2 26 -3 39 -16 47 -10 6 -12 11 -5 11 16 0 16 45 -1 59 -10 8 -14 44 -15 128 -1 65 -5 143 -9 173 l-8 55 -110 -4 c-61 -1 -112 -7 -113 -12 -2 -5 -8 -7 -13 -3 -5 3 -51 2 -102 -2 -131 -9 -128 2 -87 -302 17 -130 38 -286 45 -345 8 -60 17 -117 20 -128 4 -10 3 -19 -2 -20 -54 -3 -328 -30 -460 -45 -178 -19 -183 -19 -184 9 -1 21 -1 21 -9 -3 -5 -16 -7 2 -6 50 0 41 -3 110 -7 153 -7 62 -12 77 -25 77 -14 0 -14 2 -3 9 11 7 10 40 -10 202 -13 107 -26 196 -29 199 -3 3 -5 25 -6 50 0 25 -4 70 -8 101 l-7 55 -67 22 c-51 17 -68 19 -75 9 -6 -8 -7 -7 -4 4 4 13 -6 21 -41 35 -26 10 -50 19 -54 20 -5 1 -11 3 -15 4 -5 1 -11 2 -15 1 -5 0 -8 4 -8 10 0 6 -7 8 -17 5 -10 -4 -14 -4 -10 0 10 10 -110 77 -123 69 -6 -4 -9 -1 -8 7 2 7 -5 13 -14 13 -9 0 -20 4 -25 9 -5 5 -2 6 7 1 28 -15 6 3 -72 58 -46 33 -75 48 -72 39 4 -11 1 -10 -7 3 -17 30 -51 65 -61 65 -5 0 -6 -6 -2 -12 5 -9 3 -9 -9 1 -9 7 -15 17 -12 21 6 10 -131 141 -139 132 -4 -4 -6 -2 -4 3 4 14 -108 146 -117 137 -4 -4 -5 -2 -3 3 1 6 -23 48 -54 95 -65 98 -143 238 -183 327 -15 36 -32 60 -38 56 -6 -3 -7 -1 -3 6 4 6 -13 66 -39 134 -52 138 -127 418 -146 549 -6 48 -16 85 -20 82 -5 -3 -6 2 -3 10 3 9 1 53 -5 99 -41 307 -52 650 -31 920 6 76 9 153 6 170 -4 22 -3 26 2 13 6 -15 12 0 21 57 7 42 9 82 5 88 -4 7 -3 9 3 6 12 -8 57 178 47 195 -4 7 -3 10 1 5 11 -9 97 222 88 236 -3 5 -2 7 4 4 13 -8 36 41 27 55 -4 7 -2 8 4 4 11 -6 14 0 11 20 0 4 4 10 9 13 19 13 62 92 56 103 -4 6 -3 8 2 5 9 -5 71 80 68 93 -1 3 7 11 18 19 11 7 17 20 14 28 -3 8 -2 12 3 9 12 -8 33 19 23 28 -4 4 -2 6 4 4 13 -4 68 58 57 64 -5 3 -3 4 3 2 18 -4 152 139 147 156 -4 12 -3 13 5 1 8 -11 22 -5 71 34 33 26 58 52 54 58 -3 5 0 8 8 5 17 -6 104 48 104 65 0 7 9 13 20 13 11 1 24 2 29 3 6 1 1 8 -10 17 -10 8 -13 13 -6 9 8 -4 12 2 12 18 0 18 -7 27 -25 31 -14 4 -25 11 -25 17 0 6 5 7 10 4 6 -3 10 1 10 9 0 9 -4 16 -10 16 -13 0 -13 37 -1 44 5 4 12 0 15 -6 4 -7 4 5 1 27 -3 22 -5 49 -5 60 0 12 -3 16 -8 8 -4 -6 -8 17 -9 50 0 34 -19 175 -41 312 -56 353 -55 344 -40 350 7 2 76 13 153 23 106 14 139 22 137 32 -3 11 0 11 12 1 11 -9 32 -10 73 -5 49 6 54 9 33 16 -18 6 -14 6 15 3 23 -2 81 0 130 6 61 6 90 6 95 -1 3 -5 12 -57 19 -115 7 -58 17 -105 21 -105 4 0 6 -8 3 -18 -4 -17 64 -532 71 -540 2 -1 88 5 192 15 114 10 178 20 164 24 -14 4 -18 8 -10 9 8 1 23 3 33 5 9 2 17 -1 17 -6 0 -5 11 -9 25 -9 14 0 25 5 25 11 0 5 -6 7 -12 3 -10 -6 -10 -5 -1 7 10 12 7 55 -13 205 -14 104 -28 215 -31 247 -4 38 -10 57 -17 54 -8 -3 -12 8 -13 32 -1 36 -1 36 7 6 8 -30 8 -30 9 8 0 21 -2 36 -6 34 -5 -3 -8 14 -8 36 0 23 -3 72 -8 108 l-7 66 57 6 c32 3 119 12 193 21 74 8 175 17 223 21 51 4 93 12 100 20 7 7 14 9 17 5 3 -5 18 -10 35 -12z m-1375 -149 c0 -11 -27 -12 -34 -1 -2 4 4 9 15 9 10 1 19 -2 19 -8z m1123 -1496 c3 -5 -8 -8 -23 -8 -15 0 -26 3 -23 8 2 4 13 7 23 7 10 0 21 -3 23 -7z m187 -3228 c0 -1 -15 -2 -32 -2 -26 -1 -29 1 -13 7 17 6 45 3 45 -5z m-82 -2 c-10 -2 -26 -2 -35 0 -10 3 -2 5 17 5 19 0 27 -2 18 -5z m-839 -1197 c-1 -20 -2 -20 -6 -1 -3 11 -10 27 -17 35 -10 13 -9 13 7 1 9 -7 16 -23 16 -35z" fill="#F7931A"/>
</svg>